<?xml version="1.0" encoding="UTF-8"?>
<svg version="1.1" xmlns="http://www.w3.org/2000/svg" width="1024" height="1024">
<path d="M0 0 C337.92 0 675.84 0 1024 0 C1024 337.92 1024 675.84 1024 1024 C686.08 1024 348.16 1024 0 1024 C0 686.08 0 348.16 0 0 Z " fill="#181A1D" transform="translate(0,0)"/>
<path d="M0 0 C239.89254766 0 239.89254766 0 274 32 C274.82371094 32.73347656 275.64742187 33.46695313 276.49609375 34.22265625 C296.11395779 52.55510642 308.9760844 80.3834764 310.13916016 107.2097168 C311.03328977 140.13174543 306.01544332 171.8220318 283 197 C282.25234375 197.84046875 281.5046875 198.6809375 280.734375 199.546875 C271.87673433 208.99111439 261.28610999 215.82867278 249.5 221.0625 C248.85401855 221.34955811 248.20803711 221.63661621 247.54248047 221.93237305 C243.31973724 223.70159643 239.50922799 224.52932027 235 225 C235.54188965 225.8504187 235.54188965 225.8504187 236.09472656 226.71801758 C242.41275606 236.63508883 248.72730137 246.55417638 255 256.5 C259.27692969 263.28025448 263.57006855 270.0499891 267.875 276.8125 C268.45950928 277.73087646 269.04401855 278.64925293 269.64624023 279.59545898 C272.60836754 284.24814049 275.57356799 288.89883206 278.54296875 293.546875 C288.01026811 308.37569692 297.3296795 323.28904631 306.453125 338.33203125 C306.83514572 338.96187927 307.21716644 339.59172729 307.61076355 340.24066162 C309.49813511 343.35366407 311.38322818 346.46801713 313.26489258 349.58447266 C313.95914558 350.73209729 314.65340007 351.87972103 315.34765625 353.02734375 C315.95617432 354.03531006 316.56469238 355.04327637 317.19165039 356.08178711 C318.48571625 358.17007781 319.83854629 360.22240149 321.22827148 362.24829102 C323 365 323 365 323 367 C312.92662416 367.51217066 302.8563853 367.90175341 292.77259541 368.13986778 C288.08807446 368.25423964 283.41251258 368.40886702 278.7331543 368.65966797 C248.62551474 370.23118476 248.62551474 370.23118476 241.11572266 364.98516846 C236.55908791 359.90294878 234.14667935 354.11100843 231.97213745 347.70623779 C230.6492726 344.02364451 228.82412249 341.1217455 226.6796875 337.8515625 C225.73887329 336.31024658 225.73887329 336.31024658 224.77905273 334.73779297 C224.15071533 333.71057129 223.52237793 332.68334961 222.875 331.625 C216.64997698 321.4212069 210.52182118 311.16321649 204.4375 300.875 C198.33142928 290.55343524 192.16128027 280.27543068 185.875 270.0625 C184.85297485 268.40033447 184.85297485 268.40033447 183.81030273 266.70458984 C181.22216186 262.11469004 181.22216186 262.11469004 178 258 C177.90507278 255.65746218 177.87440209 253.34453896 177.88647461 251.00170898 C177.88632858 250.27004517 177.88618256 249.53838135 177.8860321 248.7845459 C177.88673133 246.35503216 177.89452415 243.92559417 177.90234375 241.49609375 C177.9042079 239.81600486 177.90563181 238.13591543 177.90663147 236.45582581 C177.91045693 232.02526357 177.92028744 227.5947339 177.93133545 223.16418457 C177.94154897 218.64657024 177.94612896 214.12895066 177.95117188 209.61132812 C177.96190969 200.74087107 177.97898644 191.87043824 178 183 C179.21236328 182.88100342 180.42472656 182.76200684 181.67382812 182.6394043 C183.29300639 182.47220654 184.91214497 182.30462418 186.53125 182.13671875 C187.32692383 182.05965698 188.12259766 181.98259521 188.94238281 181.90319824 C203.80834596 180.3337599 216.48506203 174.09880511 226.18359375 162.578125 C234.01614846 151.46095058 237.59098135 138.27774005 237.5 124.8125 C237.49427979 123.81508789 237.48855957 122.81767578 237.48266602 121.79003906 C237.11694787 106.47666934 232.11006615 92.61164131 220.9375 81.75 C206.40139985 69.69023719 188.98197553 66.8983685 170.69702148 66.79467773 C169.05645027 66.77982834 169.05645027 66.77982834 167.38273621 66.76467896 C163.79554349 66.73328716 160.20833756 66.70839544 156.62109375 66.68359375 C154.12288585 66.66300492 151.62468129 66.64200796 149.1264801 66.62062073 C143.24066876 66.57121212 137.35483722 66.52589586 131.46897799 66.48259836 C124.10363279 66.42816371 116.73834289 66.36731044 109.37304688 66.30664062 C96.24873562 66.199303 83.1243869 66.09762607 70 66 C70.02618408 67.16644043 70.05236816 68.33288086 70.0793457 69.53466797 C70.53749658 91.94609946 70.74487815 113.18132962 65 135 C64.48405748 137.07153635 63.96910214 139.14331879 63.45507812 141.21533203 C61.81532523 147.69145843 60.04227422 154.12720481 58.25 160.5625 C57.59648418 162.93575959 56.94308543 165.30905142 56.28979492 167.68237305 C50.50849753 188.57671177 44.31617009 209.34557461 38.06344604 230.10273743 C34.18052155 242.99655417 30.41245023 255.91696721 26.75 268.875 C22.65254517 283.35307178 18.41525549 297.78405714 14.0625 312.1875 C13.79264282 313.0826532 13.52278564 313.9778064 13.24475098 314.90008545 C9.99740655 325.65962663 6.6246873 336.36108554 3 347 C2.01 347 1.02 347 0 347 C0 232.49 0 117.98 0 0 Z " fill="#F9F8F3" transform="translate(359,320)"/>
<path d="M0 0 C28.71 0 57.42 0 87 0 C94 13 94 13 95 16 C87.41 16 79.82 16 72 16 C71.67 87.94 71.34 159.88 71 234 C25.46 234 -20.08 234 -67 234 C-62.71 220.14 -58.42 206.28 -54 192 C-49.58424154 177.00993906 -49.58424154 177.00993906 -45.2109375 162.0078125 C-42.290431 151.95439283 -39.30893353 141.91947123 -36.32324219 131.88525391 C-30.15910316 111.16829526 -24.04892688 90.43575489 -18.03817749 69.67376709 C-17.32004486 67.19527668 -16.60025288 64.71726628 -15.87857056 62.23980713 C-9.88950864 41.66563879 -4.2040763 21.02038149 0 0 Z " fill="#20A0B7" transform="translate(454,416)"/>
<path d="M0 0 C13.86 0 27.72 0 42 0 C49 13 49 13 50 16 C42.41 16 34.82 16 27 16 C27.01546875 21.65382813 27.01546875 21.65382813 27.03125 27.421875 C27.04902544 45.79778809 26.78548546 64.17016267 26.53643799 82.54400635 C26.47476035 87.12437189 26.4152194 91.70476524 26.35546875 96.28515625 C26.23900446 105.19013179 26.12027672 114.09507514 26 123 C25.67 123 25.34 123 25 123 C24.34 125.97 23.68 128.94 23 132 C21.68 131.01 20.36 130.02 19 129 C18.67 129.66 18.34 130.32 18 131 C17.01 131 16.02 131 15 131 C14.01 130.01 13.02 129.02 12 128 C11.34 133.28 10.68 138.56 10 144 C-1.22 144 -12.44 144 -24 144 C-24.7629702 127.97762574 -25.13967339 112.03880266 -25 96 C-20.20406383 95.0998164 -15.48600386 94.70560238 -10.625 94.4375 C-9.88894531 94.39431641 -9.15289062 94.35113281 -8.39453125 94.30664062 C-6.59651932 94.20156201 -4.79828042 94.10037907 -3 94 C-5.64 93.67 -8.28 93.34 -11 93 C-10.505 91.02 -10.505 91.02 -10 89 C-10.66 89 -11.32 89 -12 89 C-13.625 87.5 -13.625 87.5 -15 86 C-13.125 82.125 -13.125 82.125 -12 81 C-23.88 80.34 -35.76 79.68 -48 79 C-46.07753298 72.07911872 -44.14519401 65.16197148 -42.19482422 58.24902344 C-41.33629687 55.20184323 -40.48516081 52.15267804 -39.63720703 49.10253906 C-38.43038673 44.76399296 -37.21013666 40.42939199 -35.98233032 36.09674072 C-35.49349739 34.36340763 -35.00911002 32.62881473 -34.52914429 30.89300537 C-33.84878136 28.43562938 -33.15281484 25.98318179 -32.453125 23.53125 C-32.25018326 22.78444977 -32.04724152 22.03764954 -31.83815002 21.26821899 C-31.23925781 19.20507812 -31.23925781 19.20507812 -30 16 C-29.01 15.67 -28.02 15.34 -27 15 C-28.65 15 -30.3 15 -32 15 C-32 11.79604584 -31.25664978 9.90600261 -30 7 C-29.01 7 -28.02 7 -27 7 C-27 5.68 -27 4.36 -27 3 C-19.71016177 -0.64491911 -7.82465238 0.80328846 0 2 C0 1.34 0 0.68 0 0 Z " fill="#209DB4" transform="translate(499,416)"/>
<path d="M0 0 C2.96278513 1.8109608 5.4214584 3.84291681 7 7 C7.62381561 10.80606489 7.83686594 14.47642534 5.94140625 17.92724609 C1.84085937 23.17933544 -2.6595839 27.86149259 -7.4375 32.5 C-8.89704319 33.92451415 -10.35409732 35.35158325 -11.80859375 36.78125 C-12.44595459 37.40064453 -13.08331543 38.02003906 -13.73999023 38.65820312 C-15.6285568 40.6151147 -17.40041498 42.60751073 -19.17236328 44.66796875 C-23.37818199 49.50727046 -27.88771675 54.01334385 -32.43359375 58.53125 C-33.31153091 59.40777222 -34.18946808 60.28429443 -35.0940094 61.18737793 C-37.87281496 63.96062796 -40.65509397 66.73036282 -43.4375 69.5 C-45.33319865 71.39010805 -47.22809783 73.28101518 -49.12304688 75.171875 C-53.74605189 79.78391004 -58.37190657 84.39307141 -63 89 C-61.54496506 92.35046377 -59.70899848 94.52965102 -57.12036133 97.09082031 C-55.92320244 98.28291107 -55.92320244 98.28291107 -54.70185852 99.49908447 C-53.83731552 100.35016785 -52.97277252 101.20125122 -52.08203125 102.078125 C-51.19142502 102.96352966 -50.30081879 103.84893433 -49.38322449 104.76116943 C-47.01381223 107.11577764 -44.64045715 109.46624855 -42.26464844 111.81439209 C-38.93722835 115.10391159 -35.61478841 118.39842732 -32.29533386 121.69598389 C-30.53065247 123.44852819 -28.76330509 125.19839351 -26.99287415 126.94512939 C-22.64707181 131.25605862 -18.45874403 135.62754377 -14.49002075 140.28952026 C-12.15797337 142.96661035 -9.61199626 145.40778682 -7.0625 147.875 C6.51941993 161.33496507 6.51941993 161.33496507 7.6875 167.8125 C6.70547606 172.36552008 5.38895768 174.88111743 1.75 177.8125 C-1.8111205 179.35025658 -4.14918846 179.47290668 -8 179 C-12.44328788 176.38288117 -15.96153446 173.28497345 -19.58984375 169.640625 C-20.09745743 169.1325531 -20.60507111 168.6244812 -21.12806702 168.10101318 C-22.1951014 167.03097607 -23.25972309 165.95852806 -24.32202148 164.88378906 C-25.92451216 163.26313505 -27.53476612 161.65053466 -29.14648438 160.0390625 C-30.19057478 158.99005153 -31.2342092 157.94058647 -32.27734375 156.890625 C-32.74736313 156.4194928 -33.21738251 155.9483606 -33.7016449 155.46295166 C-36.36108933 152.76667104 -38.89138109 149.9957318 -41.36547852 147.12792969 C-45.02179165 142.91542505 -48.90827916 138.98121 -52.875 135.0625 C-53.96723877 133.97594116 -53.96723877 133.97594116 -55.08154297 132.86743164 C-57.38525646 130.57581697 -59.69219474 128.28749348 -62 126 C-65.04464779 122.98214919 -68.08582967 119.96086584 -71.125 116.9375 C-71.81062012 116.26017822 -72.49624023 115.58285645 -73.20263672 114.88500977 C-77.68236477 110.42778463 -81.88594879 105.79512757 -86 101 C-86.804375 100.0925 -87.60875 99.185 -88.4375 98.25 C-90.93540694 93.05435357 -91.12365559 88.62556606 -90 83 C-88.55395508 80.80419922 -88.55395508 80.80419922 -86.51953125 78.6796875 C-85.70347412 77.82117188 -84.88741699 76.96265625 -84.04663086 76.078125 C-83.0332313 75.04996563 -82.01746794 74.02413346 -81 73 C-80.39560089 72.38785645 -79.79120178 71.77571289 -79.16848755 71.14501953 C-74.10214872 66.02323631 -68.99181731 60.94627666 -63.875 55.875 C-60.84857452 52.87538529 -57.82563286 49.87232014 -54.8046875 46.8671875 C-54.12534149 46.19613983 -53.44599548 45.52509216 -52.74606323 44.83370972 C-48.87965206 40.98691316 -45.2268025 37.02447594 -41.66409302 32.89562988 C-39.17373664 30.05877286 -36.54055412 27.37839445 -33.875 24.70703125 C-33.32440918 24.15311203 -32.77381836 23.59919281 -32.20654297 23.02848816 C-31.05500983 21.87194543 -29.90216866 20.71670365 -28.74804688 19.56274414 C-26.99839407 17.81089205 -25.25692368 16.05116695 -23.515625 14.29101562 C-22.38590703 13.15836486 -21.25571471 12.02618698 -20.125 10.89453125 C-19.61437012 10.37671585 -19.10374023 9.85890045 -18.57763672 9.32539368 C-7.77226962 -1.41313993 -7.77226962 -1.41313993 0 0 Z " fill="#FAF9F5" transform="translate(333,428)"/>
<path d="M0 0 C13.2 0 26.4 0 40 0 C40 20.46 40 40.92 40 62 C20.86 62 1.72 62 -18 62 C-9.53373431 31.76333682 -9.53373431 31.76333682 -6.25439453 20.27026367 C-5.82313381 18.75750543 -5.39284369 17.24447025 -4.96337891 15.73120117 C-4.32385918 13.47780135 -3.68178704 11.22514376 -3.0390625 8.97265625 C-2.84744537 8.29582291 -2.65582825 7.61898956 -2.45840454 6.92164612 C-1.1142728 2.2285456 -1.1142728 2.2285456 0 0 Z " fill="#191A1D" transform="translate(469,433)"/>
<path d="M0 0 C0.33 0 0.66 0 1 0 C0.91621094 0.60328125 0.83242188 1.2065625 0.74609375 1.828125 C0.64425781 2.62734375 0.54242188 3.4265625 0.4375 4.25 C0.33308594 5.03890625 0.22867187 5.8278125 0.12109375 6.640625 C-0.13072064 9.30429051 -0.13072064 9.30429051 1 13 C12.55 13.33 24.1 13.66 36 14 C33 16 33 16 30 17 C28.28432339 20.50294871 28.28432339 20.50294871 27 24 C27.99 24.66 28.98 25.32 30 26 C28.35 26 26.7 26 25 26 C23.79046605 28.41906791 23.84320092 30.02166308 23.79467773 32.72509766 C23.77473251 33.70596344 23.75478729 34.68682922 23.73423767 35.69741821 C23.70916893 37.28965714 23.70916893 37.28965714 23.68359375 38.9140625 C23.66281265 39.99883881 23.64203156 41.08361511 23.62062073 42.20126343 C23.55509366 45.67577621 23.49622553 49.15036624 23.4375 52.625 C23.39431779 54.97657058 23.3507036 57.32813326 23.30664062 59.6796875 C23.19940907 65.4530427 23.09764856 71.2264752 23 77 C22.01 77.495 22.01 77.495 21 78 C21 78.99 21 79.98 21 81 C20.34 81 19.68 81 19 81 C19 81.66 19 82.32 19 83 C19.804375 83.226875 20.60875 83.45375 21.4375 83.6875 C24 85 24 85 24.875 87.4375 C25 90 25 90 24 93 C21.07920195 95.07530387 19.62453269 96 16 96 C16 94.68 16 93.36 16 92 C13.525 92.495 13.525 92.495 11 93 C11 92.34 11 91.68 11 91 C9.02 91.495 9.02 91.495 7 92 C7 89.17555626 7.01461406 87.98538594 9 86 C8.01 86 7.02 86 6 86 C6 86.99 6 87.98 6 89 C4.68 89 3.36 89 2 89 C1.67 88.01 1.34 87.02 1 86 C0.34 86 -0.32 86 -1 86 C-1.66 85.67 -2.32 85.34 -3 85 C-2.34 83.02 -1.68 81.04 -1 79 C3.95 78.505 3.95 78.505 9 78 C9 77.67 9 77.34 9 77 C0.09 77 -8.82 77 -18 77 C-14.5625 64.9375 -14.5625 64.9375 -13.48266602 61.17553711 C-11.96168127 55.78967662 -10.57424223 50.57257597 -10 45 C-12.97 45.495 -12.97 45.495 -16 46 C-17.0625 44.125 -17.0625 44.125 -18 42 C-17.67 41.34 -17.34 40.68 -17 40 C-17.66 40 -18.32 40 -19 40 C-21 38 -21 38 -21.1875 34.69921875 C-21.14458077 33.36120758 -21.0810949 32.02374084 -21 30.6875 C-20.9594751 30.00268555 -20.9189502 29.31787109 -20.87719727 28.61230469 C-20.60598828 25.66001132 -20.32008555 23.45308509 -18.58984375 21.00390625 C-16.9375 19.75 -16.9375 19.75 -14 18 C-14 17.01 -14 16.02 -14 15 C-13.34 14.67 -12.68 14.34 -12 14 C-12.33 13.34 -12.66 12.68 -13 12 C-14.29666613 8.9744457 -13.99752201 7.99334854 -12.8125 4.8125 C-11 2 -11 2 -9.0625 0.9375 C-6.2606351 1.022405 -5.04988032 2.16974971 -3 4 C-2.525625 3.34 -2.05125 2.68 -1.5625 2 C-1.046875 1.34 -0.53125 0.68 0 0 Z " fill="#209DB4" transform="translate(450,483)"/>
<path d="M0 0 C10.56 0 21.12 0 32 0 C31.67 18.81 31.34 37.62 31 57 C15.49 57 -0.02 57 -16 57 C-15.37273422 52.60913954 -14.83072981 48.97347437 -13.6171875 44.83081055 C-13.3402002 43.87679855 -13.06321289 42.92278656 -12.77783203 41.93986511 C-12.47989746 40.93232681 -12.18196289 39.92478851 -11.875 38.88671875 C-11.56804199 37.83595657 -11.26108398 36.7851944 -10.94482422 35.70259094 C-10.29815947 33.49238937 -9.64918895 31.28286127 -8.99804688 29.07397461 C-7.99867083 25.68298999 -7.00655947 22.28994437 -6.015625 18.89648438 C-5.38583857 16.74727216 -4.75564454 14.59817933 -4.125 12.44921875 C-3.82706543 11.4315593 -3.52913086 10.41389984 -3.22216797 9.36540222 C-2.94518066 8.42715103 -2.66819336 7.48889984 -2.3828125 6.5222168 C-2.13934082 5.69505661 -1.89586914 4.86789642 -1.64501953 4.01567078 C-1 2 -1 2 0 0 Z " fill="#19191B" transform="translate(427,577)"/>
<path d="M0 0 C11.22 0 22.44 0 34 0 C34 18.81 34 37.62 34 57 C22.78 57 11.56 57 0 57 C0 38.19 0 19.38 0 0 Z " fill="#19181B" transform="translate(475,577)"/>
<path d="M0 0 C0.33 0 0.66 0 1 0 C1 9.9 1 19.8 1 30 C2.485 30.495 2.485 30.495 4 31 C4 31.66 4 32.32 4 33 C4.99 33 5.98 33 7 33 C7.33 32.01 7.66 31.02 8 30 C8.99 30.66 9.98 31.32 11 32 C12.21693876 29.56612247 12.31959896 27.58161154 12.5625 24.875 C12.68818359 23.50988281 12.68818359 23.50988281 12.81640625 22.1171875 C12.87699219 21.41851563 12.93757812 20.71984375 13 20 C13.33 20 13.66 20 14 20 C14.74600154 23.33105543 15.12411765 26.40411529 15.12025452 29.81526184 C15.12231651 31.22652847 15.12231651 31.22652847 15.12442017 32.66630554 C15.11902725 34.19623894 15.11902725 34.19623894 15.11352539 35.75708008 C15.11367142 36.84045654 15.11381744 37.92383301 15.1139679 39.04003906 C15.11327192 42.61655691 15.1054942 46.19302251 15.09765625 49.76953125 C15.09579095 52.25103222 15.09436758 54.73253356 15.09336853 57.21403503 C15.08955215 63.74226907 15.07972934 70.27048082 15.06866455 76.79870605 C15.05599624 84.63314942 15.052044 92.46760465 15.04621124 100.30205536 C15.03651715 112.20138573 15.0173544 124.10066722 15 136 C-19.32 136 -53.64 136 -89 136 C-89 135.67 -89 135.34 -89 135 C-87.82093582 134.99191315 -86.64187164 134.98382629 -85.42707825 134.97549438 C-74.31784981 134.89802427 -63.20874371 134.81028263 -52.09967518 134.71247292 C-46.38833357 134.66251789 -40.6770104 134.61618762 -34.96557617 134.578125 C-29.45418091 134.5412624 -23.9429401 134.49489949 -18.43167686 134.44193649 C-16.32856644 134.42339779 -14.22542292 134.40828789 -12.12226295 134.39665604 C-9.17745763 134.37978485 -6.23300562 134.35074724 -3.28833008 134.31884766 C-2.4179863 134.31668747 -1.54764252 134.31452728 -0.65092468 134.31230164 C3.67554065 134.25239424 7.05891749 134.01228769 11 132 C11.33 132.33 11.66 132.66 12 133 C11.9592334 132.31373535 11.9184668 131.6274707 11.87646484 130.92041016 C11.6984936 127.82245055 11.5365518 124.72385734 11.375 121.625 C11.31054688 120.54476562 11.24609375 119.46453125 11.1796875 118.3515625 C11.128125 117.3203125 11.0765625 116.2890625 11.0234375 115.2265625 C10.94488525 113.79691162 10.94488525 113.79691162 10.86474609 112.33837891 C11 110 11 110 13 108 C13.54814031 103.20165439 13.54814031 103.20165439 11.5 99.0625 C11.005 98.711875 10.51 98.36125 10 98 C10.99 98 11.98 98 13 98 C12.85892253 96.54119891 12.71197585 95.08296449 12.5625 93.625 C12.44068359 92.40683594 12.44068359 92.40683594 12.31640625 91.1640625 C12.10909886 88.95727195 12.10909886 88.95727195 11 87 C11.60578253 84.98072489 12.26919734 82.97746603 13 81 C12.34 81 11.68 81 11 81 C10.67 81.66 10.34 82.32 10 83 C9.97314588 80.68756208 9.95367159 78.3750373 9.9375 76.0625 C9.92589844 74.77472656 9.91429687 73.48695313 9.90234375 72.16015625 C10 69 10 69 11 68 C11.04063832 66.33382885 11.042721 64.66611905 11 63 C10.34 63 9.68 63 9 63 C8.67 63.99 8.34 64.98 8 66 C6.68 66 5.36 66 4 66 C3.67 65.34 3.34 64.68 3 64 C1.31114748 65.68885252 1.84914211 67.81588646 1.82641602 70.13061523 C1.81292618 71.22522568 1.79943634 72.31983612 1.78553772 73.44761658 C1.77509933 74.63923904 1.76466095 75.83086151 1.75390625 77.05859375 C1.72097387 79.55273796 1.68776212 82.0468785 1.65429688 84.54101562 C1.60679684 88.49582428 1.56237006 92.45061737 1.52319336 96.40551758 C1.48362483 100.20670284 1.43204651 104.00757749 1.37890625 107.80859375 C1.3704921 108.99819199 1.36207794 110.18779022 1.35340881 111.41343689 C1.33676682 112.51119949 1.32012482 113.6089621 1.30297852 114.73999023 C1.29267105 115.7096019 1.28236359 116.67921356 1.27174377 117.6782074 C1 120 1 120 -1 122 C-3.76861137 122.27023694 -6.44382034 122.42197821 -9.21875 122.484375 C-10.43927063 122.52053925 -10.43927063 122.52053925 -11.68444824 122.55743408 C-13.40587766 122.60575824 -15.12745168 122.64914398 -16.84912109 122.68798828 C-19.4898984 122.74976369 -22.12941664 122.83280376 -24.76953125 122.91796875 C-26.44007066 122.96222118 -28.11064351 123.00523183 -29.78125 123.046875 C-30.97034973 123.08575836 -30.97034973 123.08575836 -32.18347168 123.12542725 C-34.12242681 123.16165299 -36.06279906 123.09006562 -38 123 C-38.99 122.01 -38.99 122.01 -40 121 C-39.34 121 -38.68 121 -38 121 C-38 120.34 -38 119.68 -38 119 C-39.65 119.99 -41.3 120.98 -43 122 C-43.33 121.34 -43.66 120.68 -44 120 C-44.99 119.67 -45.98 119.34 -47 119 C-47 119.66 -47 120.32 -47 121 C-51.81350852 122.24016965 -56.53141883 122.14423766 -61.46484375 122.1328125 C-62.37577286 122.13376923 -63.28670197 122.13472595 -64.22523499 122.13571167 C-66.14747181 122.13639069 -68.06971097 122.13455581 -69.99194336 122.13037109 C-72.92371817 122.12502513 -75.85533935 122.13032234 -78.78710938 122.13671875 C-80.6588545 122.1360578 -82.53059954 122.13477628 -84.40234375 122.1328125 C-85.2743895 122.13483673 -86.14643524 122.13686096 -87.04490662 122.13894653 C-91.47720039 122.12199683 -95.6365894 121.89389777 -100 121 C-100 120.67 -100 120.34 -100 120 C-84.16 120 -68.32 120 -52 120 C-52 101.52 -52 83.04 -52 64 C-51.34 64 -50.68 64 -50 64 C-49.67 81.16 -49.34 98.32 -49 116 C-47.35 114.35 -45.7 112.7 -44 111 C-43.01 110.67 -42.02 110.34 -41 110 C-40.67 110.66 -40.34 111.32 -40 112 C-39.01 111.67 -38.02 111.34 -37 111 C-37.00444122 110.42814972 -37.00888245 109.85629944 -37.01345825 109.26712036 C-37.05760951 103.33028658 -37.08783212 97.39349922 -37.10986328 91.45654297 C-37.11993825 89.23907579 -37.13359859 87.02162195 -37.15087891 84.80419922 C-37.17506163 81.62203688 -37.18646797 78.44004976 -37.1953125 75.2578125 C-37.20563507 74.26194122 -37.21595764 73.26606995 -37.22659302 72.24002075 C-37.22681961 70.85881546 -37.22681961 70.85881546 -37.22705078 69.44970703 C-37.231492 68.6369632 -37.23593323 67.82421936 -37.24050903 66.98684692 C-37 65 -37 65 -35 63 C-35 81.81 -35 100.62 -35 120 C-23.78 120 -12.56 120 -1 120 C-1 101.19 -1 82.38 -1 63 C-11.89 63 -22.78 63 -34 63 C-29.75197923 60.87598962 -26.83238937 60.7623893 -22.25 60.875 C-21.55261719 60.88402344 -20.85523438 60.89304687 -20.13671875 60.90234375 C-18.42433042 60.92580112 -16.71211996 60.96166896 -15 61 C-15 60.34 -15 59.68 -15 59 C-13.68 58.67 -12.36 58.34 -11 58 C-10.67 56.68 -10.34 55.36 -10 54 C-9.01 54 -8.02 54 -7 54 C-7 52.35 -7 50.7 -7 49 C-6.34 49.33 -5.68 49.66 -5 50 C-5 50.99 -5 51.98 -5 53 C-4.67 51.68 -4.34 50.36 -4 49 C-9.94 49 -15.88 49 -22 49 C-22.33 50.32 -22.66 51.64 -23 53 C-23.33 53.99 -23.66 54.98 -24 56 C-24.66 56 -25.32 56 -26 56 C-26.495 52.04 -26.495 52.04 -27 48 C-29.64 48 -32.28 48 -35 48 C-35 47.34 -35 46.68 -35 46 C-23.78 46 -12.56 46 -1 46 C-0.67 30.82 -0.34 15.64 0 0 Z " fill="#21A4BB" transform="translate(510,514)"/>
<path d="M0 0 C11.55 0 23.1 0 35 0 C35 15.84 35 31.68 35 48 C23.78 48 12.56 48 1 48 C0.2364626 31.96571459 -0.09554858 16.05216091 0 0 Z " fill="#19181A" transform="translate(474,512)"/>
<path d="M0 0 C14.85 0 29.7 0 45 0 C45 0.66 45 1.32 45 2 C39.59281437 3.13173653 39.59281437 3.13173653 36.75 2.5 C33.28432948 1.86987809 30.19312097 2.14263468 26.6875 2.4375 C24.80611328 2.59025391 24.80611328 2.59025391 22.88671875 2.74609375 C21.93410156 2.82988281 20.98148437 2.91367187 20 3 C19.731875 3.804375 19.46375 4.60875 19.1875 5.4375 C18.795625 6.283125 18.40375 7.12875 18 8 C17.01 8.33 16.02 8.66 15 9 C14.34 10.65 13.68 12.3 13 14 C17.29 14 21.58 14 26 14 C26 14.33 26 14.66 26 15 C22.37 15.33 18.74 15.66 15 16 C14.5968457 18.14000488 14.5968457 18.14000488 14.18554688 20.32324219 C13.06658419 25.90848974 11.5976358 31.35402257 10.03125 36.828125 C9.75027466 37.82076355 9.46929932 38.8134021 9.17980957 39.83612061 C8.5899378 41.91730062 7.99823915 43.99796364 7.40478516 46.078125 C6.49884126 49.25406216 5.59855389 52.4315608 4.69921875 55.609375 C4.12272354 57.64071803 3.54591162 59.67197121 2.96875 61.703125 C2.70098755 62.64698059 2.4332251 63.59083618 2.15734863 64.56329346 C0.86773943 69.07897364 -0.46532005 73.55973296 -2 78 C16.97605791 79.23528355 35.9929761 79.54713978 55 80 C55 80.33 55 80.66 55 81 C35.61792933 82.29479403 16.38796204 81.73296967 -3 81 C-3.12375 80.195625 -3.2475 79.39125 -3.375 78.5625 C-3.58125 77.716875 -3.7875 76.87125 -4 76 C-4.66 75.67 -5.32 75.34 -6 75 C-5.34 75 -4.68 75 -4 75 C-4 72.69 -4 70.38 -4 68 C-5.32 69.32 -6.64 70.64 -8 72 C-8.8971875 71.2265625 -8.8971875 71.2265625 -9.8125 70.4375 C-10.534375 69.963125 -11.25625 69.48875 -12 69 C-15.18414239 69.6685437 -15.18414239 69.6685437 -16.1875 72.375 C-17.14784186 75.01966486 -17.14784186 75.01966486 -17 78 C-16.01 77.505 -16.01 77.505 -15 77 C-15.33 78.65 -15.66 80.3 -16 82 C-16.66 82 -17.32 82 -18 82 C-17.67 83.32 -17.34 84.64 -17 86 C-17.61875 86.0825 -18.2375 86.165 -18.875 86.25 C-21.18437567 86.81258459 -21.18437567 86.81258459 -22.25 89.0625 C-22.4975 89.701875 -22.745 90.34125 -23 91 C-22.3026415 84.37952289 -20.46082706 78.1782008 -18.61328125 71.796875 C-17.91454624 69.34509976 -17.21598459 66.8932751 -16.51757812 64.44140625 C-15.42580154 60.62855292 -14.33164112 56.81643731 -13.23364258 53.00537109 C-8.17628312 35.41968438 -3.81342399 17.8960685 0 0 Z M29.625 81.875 C30.40875 81.91625 31.1925 81.9575 32 82 C31.34 83.32 30.68 84.64 30 86 C30.99 86.33 31.98 86.66 33 87 C33 87.66 33 88.32 33 89 C33.66 89 34.32 89 35 89 C35 89.99 35 90.98 35 92 C41.27 92.66 47.54 93.32 54 94 C54 94.33 54 94.66 54 95 C42.78 95.33 31.56 95.66 20 96 C20 111.84 20 127.68 20 144 C19.67 144 19.34 144 19 144 C18.94931019 137.09492119 18.91427073 130.18989034 18.89013672 123.28466797 C18.88007616 120.93536587 18.86642627 118.58607631 18.84912109 116.23681641 C18.82487548 112.86097115 18.81351741 109.4852914 18.8046875 106.109375 C18.79436493 105.05820496 18.78404236 104.00703491 18.77340698 102.92401123 C18.77325592 101.94329651 18.77310486 100.96258179 18.77294922 99.95214844 C18.768508 99.09055115 18.76406677 98.22895386 18.75949097 97.34124756 C19.01940215 94.81112876 19.72715804 93.18270153 21 91 C21 91.66 21 92.32 21 93 C21.66 92.67 22.32 92.34 23 92 C22.67 91.34 22.34 90.68 22 90 C22.66 90 23.32 90 24 90 C24.185625 88.576875 24.185625 88.576875 24.375 87.125 C25.13807183 83.30964086 25.62149944 82.06564288 29.625 81.875 Z M31 87 C32 89 32 89 32 89 Z " fill="#21A3BB" transform="translate(454,416)"/>
<path d="M0 0 C0.33 0 0.66 0 1 0 C1.09491027 21.82881364 0.83153545 43.64904107 0.53643799 65.4753418 C0.47481169 70.06232018 0.41524044 74.64932527 0.35546875 79.23632812 C0.23892981 88.15757853 0.12020878 97.07879834 0 106 C-0.33 106 -0.66 106 -1 106 C-1.66 108.97 -2.32 111.94 -3 115 C-4.32 114.01 -5.64 113.02 -7 112 C-7.33 112.66 -7.66 113.32 -8 114 C-8.99 114 -9.98 114 -11 114 C-11.99 113.01 -12.98 112.02 -14 111 C-14.33 114.63 -14.66 118.26 -15 122 C-15.33 122 -15.66 122 -16 122 C-16 107.81 -16 93.62 -16 79 C-25.57 79 -35.14 79 -45 79 C-45 78.67 -45 78.34 -45 78 C-37.08 77.505 -37.08 77.505 -29 77 C-31.64 76.67 -34.28 76.34 -37 76 C-36.67 74.68 -36.34 73.36 -36 72 C-36.66 72 -37.32 72 -38 72 C-39.625 70.5 -39.625 70.5 -41 69 C-39.125 65.125 -39.125 65.125 -38 64 C-43.28 63.67 -48.56 63.34 -54 63 C-54 62.67 -54 62.34 -54 62 C-41.46 62 -28.92 62 -16 62 C-15.10892519 58.43570075 -14.86347487 55.73096519 -14.82421875 52.09765625 C-14.80037109 50.96005859 -14.77652344 49.82246094 -14.75195312 48.65039062 C-14.70905779 46.26255059 -14.67776739 43.87447328 -14.65820312 41.48632812 C-14.63048828 40.34744141 -14.60277344 39.20855469 -14.57421875 38.03515625 C-14.55963623 36.9975415 -14.54505371 35.95992676 -14.5300293 34.89086914 C-13.71792158 30.46149674 -11.09869296 28.09869296 -8 25 C-5.875 24.375 -5.875 24.375 -4 24 C-1.4987035 30.09691023 -1.43029461 35.77166948 -2.5625 42.1875 C-3.15113515 44.97759874 -3.15113515 44.97759874 -2.53344727 47.66064453 C-1.91341938 51.5419907 -1.87482305 55.32511867 -1.90234375 59.2421875 C-1.9037587 60.01055939 -1.90517365 60.77893127 -1.90663147 61.57058716 C-1.91219317 64.00543239 -1.9247384 66.44018294 -1.9375 68.875 C-1.94251996 70.53385283 -1.94708199 72.19270712 -1.95117188 73.8515625 C-1.96215002 77.9010777 -1.97938794 81.95052284 -2 86 C-1.98969254 85.30605133 -1.97938507 84.61210266 -1.96876526 83.89712524 C-1.86909746 77.22404484 -1.7664086 70.55101774 -1.66066074 63.87803078 C-1.60644605 60.45077245 -1.55323776 57.02350587 -1.50268555 53.59619141 C-1.23639227 35.71837864 -0.78536966 17.86292996 0 0 Z " fill="#1F9BB2" transform="translate(525,433)"/>
<path d="M0 0 C1.21864289 3.65592868 0.70565218 6.09782606 0.15625 9.84375 C-0.15203422 12.18384094 -0.15203422 12.18384094 1 15 C1.66 15 2.32 15 3 15 C3.495 17.97 3.495 17.97 4 21 C4.66 21 5.32 21 6 21 C6.33 20.34 6.66 19.68 7 19 C7.99 19.33 8.98 19.66 10 20 C11.72054379 23.63125574 10.47711669 26.61309634 9.34765625 30.296875 C8.80141602 32.10478516 8.80141602 32.10478516 8.24414062 33.94921875 C7.85419922 35.20347656 7.46425781 36.45773437 7.0625 37.75 C6.67160316 39.03227111 6.2816187 40.31482073 5.89257812 41.59765625 C4.9373677 44.73452011 3.96984619 47.86763026 3 51 C15.87 51.495 15.87 51.495 29 52 C29 36.16 29 20.32 29 4 C29.33 4 29.66 4 30 4 C30.02526838 10.96003447 30.04283222 17.9200572 30.05493164 24.88012695 C30.05997341 27.24992312 30.06680665 29.61971615 30.07543945 31.98950195 C30.0875119 35.38754039 30.09322971 38.78553785 30.09765625 42.18359375 C30.10281754 43.25024765 30.10797882 44.31690155 30.11329651 45.4158783 C30.11337204 46.39681961 30.11344757 47.37776093 30.11352539 48.38842773 C30.115746 49.25668686 30.11796661 50.12494598 30.12025452 51.01951599 C30 53 30 53 29 54 C27.02416172 54.09985642 25.04476522 54.13080794 23.06640625 54.1328125 C21.2575293 54.13474609 21.2575293 54.13474609 19.41210938 54.13671875 C18.14173828 54.13285156 16.87136719 54.12898437 15.5625 54.125 C14.29599609 54.12886719 13.02949219 54.13273438 11.72460938 54.13671875 C10.51740234 54.13542969 9.31019531 54.13414062 8.06640625 54.1328125 C6.95209229 54.13168457 5.83777832 54.13055664 4.68969727 54.12939453 C2 54 2 54 0 53 C-0.66 54.32 -1.32 55.64 -2 57 C-3.485 56.505 -3.485 56.505 -5 56 C-5.66 57.98 -6.32 59.96 -7 62 C-7.66 62 -8.32 62 -9 62 C-8.67 62.66 -8.34 63.32 -8 64 C-7.01 63.505 -7.01 63.505 -6 63 C-4.515 63.99 -4.515 63.99 -3 65 C-3 65.99 -3 66.98 -3 68 C7.56 68 18.12 68 29 68 C29 68.33 29 68.66 29 69 C18.44 69 7.88 69 -3 69 C-4.23036156 74.03942428 -4.23036156 74.03942428 -5.45263672 79.08081055 C-6.38538539 82.8561991 -7.43459749 86.42495913 -9 90 C-9.66 88.68 -10.32 87.36 -11 86 C-12.32 86 -13.64 86 -15 86 C-15.66 84.68 -16.32 83.36 -17 82 C-18.485 82.495 -18.485 82.495 -20 83 C-20.33 82.34 -20.66 81.68 -21 81 C-23.32760583 86.0753812 -24.9111298 91.00920183 -26.1875 96.4375 C-26.36474609 97.16904297 -26.54199219 97.90058594 -26.72460938 98.65429688 C-27.15520891 100.43488415 -27.57839216 102.21726226 -28 104 C-28.66 104 -29.32 104 -30 104 C-29.38928725 97.31430257 -27.76658539 91.22694569 -25.82421875 84.8125 C-25.50262787 83.73224548 -25.18103699 82.65199097 -24.84970093 81.53900146 C-23.80170941 78.02415282 -22.74476306 74.51206975 -21.6875 71 C-20.96293399 68.57730578 -20.23889815 66.15445293 -19.51538086 63.73144531 C-18.05323199 58.83875983 -16.58734565 53.94721882 -15.11816406 49.05664062 C-13.17181367 42.57674759 -11.2367232 36.09354763 -9.3046875 29.609375 C-8.48312091 26.85583618 -7.66112543 24.1024261 -6.83877563 21.34912109 C-6.32264814 19.62102635 -5.8068383 17.8928367 -5.29135132 16.16455078 C-4.58288459 13.79140847 -3.87194301 11.4190233 -3.16015625 9.046875 C-2.9536142 8.3536615 -2.74707214 7.660448 -2.53427124 6.94622803 C-1.11474399 2.22948798 -1.11474399 2.22948798 0 0 Z " fill="#21A4BC" transform="translate(430,508)"/>
<path d="M0 0 C3.96 0 7.92 0 12 0 C12 15.84 12 31.68 12 48 C3.42 48 -5.16 48 -14 48 C-9.55018284 31.92617068 -4.93106562 15.93228801 0 0 Z " fill="#19171A" transform="translate(446,512)"/>
<path d="M0 0 C1.6097168 0.00966797 1.6097168 0.00966797 3.25195312 0.01953125 C4.9312793 0.04466797 4.9312793 0.04466797 6.64453125 0.0703125 C7.77568359 0.07933594 8.90683594 0.08835937 10.07226562 0.09765625 C12.86739953 0.12124388 15.6621097 0.1541595 18.45703125 0.1953125 C19.60581457 2.29791591 20.75114317 4.40227789 21.89453125 6.5078125 C22.22001953 7.10271484 22.54550781 7.69761719 22.88085938 8.31054688 C24.29440509 10.91904876 25.51651758 13.37377149 26.45703125 16.1953125 C18.86703125 16.5253125 11.27703125 16.8553125 3.45703125 17.1953125 C2.54810948 37.89428718 2.16848577 58.56927407 1.92480469 79.28417969 C1.87357145 83.57620317 1.81843018 87.86817655 1.76367188 92.16015625 C1.65775277 100.50516536 1.55597596 108.85021779 1.45703125 117.1953125 C1.12703125 117.1953125 0.79703125 117.1953125 0.45703125 117.1953125 C-0.37598294 106.15136654 -0.64903153 95.20500939 -0.54296875 84.1328125 C-0.51612208 81.26693083 -0.49632037 78.40111739 -0.48046875 75.53515625 C-0.46886719 74.29113037 -0.45726562 73.04710449 -0.4453125 71.76538086 C-0.54362922 68.17116753 -1.02077849 64.74865401 -1.54296875 61.1953125 C-1.23505183 59.5237635 -0.89909972 57.85725703 -0.54296875 56.1953125 C-0.30693357 51.42215654 -0.34188564 46.84950955 -1.54296875 42.1953125 C-3.98776954 42.38360022 -3.98776954 42.38360022 -6.54296875 43.1953125 C-7.78471671 45.0954302 -7.78471671 45.0954302 -8.54296875 47.1953125 C-9.20296875 47.8553125 -9.86296875 48.5153125 -10.54296875 49.1953125 C-10.91619302 52.30287265 -10.91619302 52.30287265 -10.95703125 55.953125 C-10.9763974 56.61617645 -10.99576355 57.27922791 -11.01571655 57.96237183 C-11.07552829 60.08155427 -11.12190263 62.200791 -11.16796875 64.3203125 C-11.2061472 65.75653419 -11.24519886 67.19273295 -11.28515625 68.62890625 C-11.38123 72.15083186 -11.46525517 75.67292858 -11.54296875 79.1953125 C-13.53840656 75.86639123 -13.78707116 73.36245655 -13.77001953 69.50878906 C-13.76986847 68.36790833 -13.76971741 67.22702759 -13.76956177 66.05157471 C-13.7592392 64.82541443 -13.74891663 63.59925415 -13.73828125 62.3359375 C-13.73545135 61.07642273 -13.73262146 59.81690796 -13.72970581 58.51922607 C-13.72040996 55.17857348 -13.70245458 51.83819581 -13.68029785 48.49761963 C-13.65980083 45.08567678 -13.65069587 41.67370548 -13.640625 38.26171875 C-13.61856782 31.57284082 -13.58509242 24.88409253 -13.54296875 18.1953125 C-12.55296875 17.8653125 -11.56296875 17.5353125 -10.54296875 17.1953125 C-10.21296875 18.1853125 -9.88296875 19.1753125 -9.54296875 20.1953125 C-8.55296875 19.8653125 -7.56296875 19.5353125 -6.54296875 19.1953125 C-6.54296875 20.1853125 -6.54296875 21.1753125 -6.54296875 22.1953125 C-5.55296875 21.8653125 -4.56296875 21.5353125 -3.54296875 21.1953125 C-3.54296875 20.2053125 -3.54296875 19.2153125 -3.54296875 18.1953125 C-2.88296875 17.8653125 -2.22296875 17.5353125 -1.54296875 17.1953125 C-1.54296875 19.1753125 -1.54296875 21.1553125 -1.54296875 23.1953125 C-1.3728125 22.64101563 -1.20265625 22.08671875 -1.02734375 21.515625 C0.95168625 15.5995885 0.95168625 15.5995885 3.33203125 13.6953125 C5.77465058 13.12057854 7.95628389 13.05638209 10.45703125 13.1953125 C10.78703125 13.8553125 11.11703125 14.5153125 11.45703125 15.1953125 C11.78703125 14.2053125 12.11703125 13.2153125 12.45703125 12.1953125 C14.43703125 12.8553125 16.41703125 13.5153125 18.45703125 14.1953125 C18.45703125 13.2053125 18.45703125 12.2153125 18.45703125 11.1953125 C19.11703125 10.5353125 19.77703125 9.8753125 20.45703125 9.1953125 C19.96203125 8.2053125 19.96203125 8.2053125 19.45703125 7.1953125 C17.47703125 7.1953125 15.49703125 7.1953125 13.45703125 7.1953125 C13.12703125 6.2053125 12.79703125 5.2153125 12.45703125 4.1953125 C13.44703125 4.1953125 14.43703125 4.1953125 15.45703125 4.1953125 C15.78703125 3.5353125 16.11703125 2.8753125 16.45703125 2.1953125 C8.20703125 2.1953125 -0.04296875 2.1953125 -8.54296875 2.1953125 C-5.14399202 -0.07067198 -3.97977702 -0.04211404 0 0 Z " fill="#21A8C0" transform="translate(522.54296875,415.8046875)"/>
<path d="M0 0 C1.28648437 0.00193359 2.57296875 0.00386719 3.8984375 0.00585938 C4.89810547 0.01516479 4.89810547 0.01516479 5.91796875 0.0246582 C7.96106373 0.04296988 10.00370632 0.04516733 12.046875 0.04492188 C22.05528116 0.09014058 22.05528116 0.09014058 24.3359375 1.23046875 C24.3822304 8.75815655 24.41779115 16.28582963 24.43956184 23.81362724 C24.45000948 27.30890802 24.46418633 30.80409158 24.48681641 34.29931641 C24.51265703 38.31543931 24.52240216 42.33145972 24.53125 46.34765625 C24.54157257 47.60601288 24.55189514 48.86436951 24.56253052 50.16085815 C24.56268158 51.32191071 24.56283264 52.48296326 24.56298828 53.67919922 C24.5674295 54.70512177 24.57187073 55.73104431 24.57644653 56.78805542 C24.3359375 59.23046875 24.3359375 59.23046875 22.3359375 61.23046875 C19.56732613 61.50070569 16.89211716 61.65244696 14.1171875 61.71484375 C12.89666687 61.751008 12.89666687 61.751008 11.65148926 61.78790283 C9.93005984 61.83622699 8.20848582 61.87961273 6.48681641 61.91845703 C3.8460391 61.98023244 1.20652086 62.06327251 -1.43359375 62.1484375 C-3.10413316 62.19268993 -4.77470601 62.23570058 -6.4453125 62.27734375 C-7.23804565 62.30326599 -8.03077881 62.32918823 -8.84753418 62.355896 C-10.78648931 62.39212174 -12.72686156 62.32053437 -14.6640625 62.23046875 C-15.3240625 61.57046875 -15.9840625 60.91046875 -16.6640625 60.23046875 C-16.0040625 60.23046875 -15.3440625 60.23046875 -14.6640625 60.23046875 C-14.6640625 59.57046875 -14.6640625 58.91046875 -14.6640625 58.23046875 C-16.3140625 59.22046875 -17.9640625 60.21046875 -19.6640625 61.23046875 C-19.9940625 60.57046875 -20.3240625 59.91046875 -20.6640625 59.23046875 C-21.6540625 58.90046875 -22.6440625 58.57046875 -23.6640625 58.23046875 C-23.6640625 58.89046875 -23.6640625 59.55046875 -23.6640625 60.23046875 C-28.47757102 61.4706384 -33.19548133 61.37470641 -38.12890625 61.36328125 C-39.03983536 61.36423798 -39.95076447 61.3651947 -40.88929749 61.36618042 C-42.81153431 61.36685944 -44.73377347 61.36502456 -46.65600586 61.36083984 C-49.58778067 61.35549388 -52.51940185 61.36079109 -55.45117188 61.3671875 C-57.322917 61.36652655 -59.19466204 61.36524503 -61.06640625 61.36328125 C-61.938452 61.36530548 -62.81049774 61.36732971 -63.70896912 61.36941528 C-68.14126289 61.35246558 -72.3006519 61.12436652 -76.6640625 60.23046875 C-76.6640625 59.90046875 -76.6640625 59.57046875 -76.6640625 59.23046875 C-60.8240625 59.23046875 -44.9840625 59.23046875 -28.6640625 59.23046875 C-28.6640625 40.75046875 -28.6640625 22.27046875 -28.6640625 3.23046875 C-28.0040625 3.23046875 -27.3440625 3.23046875 -26.6640625 3.23046875 C-26.3340625 20.39046875 -26.0040625 37.55046875 -25.6640625 55.23046875 C-24.0140625 53.58046875 -22.3640625 51.93046875 -20.6640625 50.23046875 C-19.6740625 49.90046875 -18.6840625 49.57046875 -17.6640625 49.23046875 C-17.3340625 49.89046875 -17.0040625 50.55046875 -16.6640625 51.23046875 C-15.6740625 50.90046875 -14.6840625 50.57046875 -13.6640625 50.23046875 C-13.66850372 49.65861847 -13.67294495 49.08676819 -13.67752075 48.49758911 C-13.72167201 42.56075533 -13.75189462 36.62396797 -13.77392578 30.68701172 C-13.78400075 28.46954454 -13.79766109 26.2520907 -13.81494141 24.03466797 C-13.83912413 20.85250563 -13.85053047 17.67051851 -13.859375 14.48828125 C-13.86969757 13.49240997 -13.88002014 12.4965387 -13.89065552 11.4704895 C-13.89088211 10.08928421 -13.89088211 10.08928421 -13.89111328 8.68017578 C-13.8955545 7.86743195 -13.89999573 7.05468811 -13.90457153 6.21731567 C-13.6640625 4.23046875 -13.6640625 4.23046875 -11.6640625 2.23046875 C-11.6640625 21.04046875 -11.6640625 39.85046875 -11.6640625 59.23046875 C-0.4440625 59.23046875 10.7759375 59.23046875 22.3359375 59.23046875 C22.3359375 40.42046875 22.3359375 21.61046875 22.3359375 2.23046875 C11.4459375 2.23046875 0.5559375 2.23046875 -10.6640625 2.23046875 C-6.46334531 0.13011016 -4.58995447 -0.0159656 0 0 Z " fill="#25BFD3" transform="translate(486.6640625,574.76953125)"/>
<path d="M0 0 C27.38986024 -0.08021762 27.38986024 -0.08021762 39.12890625 -0.09765625 C47.11672946 -0.10957889 55.10449573 -0.12363358 63.09228516 -0.15087891 C69.53730651 -0.1727227 75.9822783 -0.18459285 82.42733383 -0.18975449 C84.8775091 -0.19342961 87.32768187 -0.20060582 89.77783585 -0.21146011 C111.63712391 -0.30438407 131.86227787 -0.01820681 150 14 C152.24672885 16.23366647 154.08458725 18.4633723 156 21 C155.34 21.33 154.68 21.66 154 22 C153.195625 20.8553125 153.195625 20.8553125 152.375 19.6875 C149.77450983 16.74484008 147.52054919 15.64791664 144 14 C143.56429687 13.53980469 143.12859375 13.07960938 142.6796875 12.60546875 C140.41133156 10.43734249 138.01230066 9.29939526 135.1875 7.9375 C134.17042969 7.43089844 133.15335938 6.92429687 132.10546875 6.40234375 C118.5378592 1.16444652 102.38711149 2.65400755 88.1328125 2.5859375 C85.64174782 2.56719878 83.15068931 2.54762342 80.65963745 2.5272522 C74.14637917 2.47621056 67.63310037 2.4364361 61.11975098 2.39910889 C54.45608416 2.35889272 47.79250569 2.30788126 41.12890625 2.2578125 C28.08599726 2.16138488 15.04304028 2.07650786 2 2 C2.00523682 3.10400146 2.01047363 4.20800293 2.01586914 5.34545898 C2.03409457 9.47728654 2.04549559 13.6091106 2.05493164 17.7409668 C2.05993201 19.52254842 2.06673446 21.30412599 2.07543945 23.08569336 C2.08769464 25.6600037 2.09327142 28.23425936 2.09765625 30.80859375 C2.10281754 31.59334579 2.10797882 32.37809784 2.11329651 33.18663025 C2.11437142 44.0040664 2.11437142 44.0040664 1 49 C0.34 49.66 -0.32 50.32 -1 51 C-0.67 34.17 -0.34 17.34 0 0 Z " fill="#090A0B" transform="translate(429,386)"/>
<path d="M0 0 C0.66 0 1.32 0 2 0 C1.67 3.3 1.34 6.6 1 10 C19.97605791 11.23528355 38.9929761 11.54713978 58 12 C58 12.33 58 12.66 58 13 C38.61792933 14.29479403 19.38796204 13.73296967 0 13 C-0.12375 12.195625 -0.2475 11.39125 -0.375 10.5625 C-0.684375 9.2940625 -0.684375 9.2940625 -1 8 C-1.66 7.67 -2.32 7.34 -3 7 C-2.34 7 -1.68 7 -1 7 C-0.67 4.69 -0.34 2.38 0 0 Z M32.625 13.875 C33.40875 13.91625 34.1925 13.9575 35 14 C34.34 15.32 33.68 16.64 33 18 C33.99 18.33 34.98 18.66 36 19 C36 19.66 36 20.32 36 21 C36.66 21 37.32 21 38 21 C38 21.99 38 22.98 38 24 C44.27 24.66 50.54 25.32 57 26 C57 26.33 57 26.66 57 27 C45.78 27.33 34.56 27.66 23 28 C23 43.84 23 59.68 23 76 C22.67 76 22.34 76 22 76 C21.94931019 69.09492119 21.91427073 62.18989034 21.89013672 55.28466797 C21.88007616 52.93536587 21.86642627 50.58607631 21.84912109 48.23681641 C21.82487548 44.86097115 21.81351741 41.4852914 21.8046875 38.109375 C21.79436493 37.05820496 21.78404236 36.00703491 21.77340698 34.92401123 C21.77325592 33.94329651 21.77310486 32.96258179 21.77294922 31.95214844 C21.768508 31.09055115 21.76406677 30.22895386 21.75949097 29.34124756 C22.01940215 26.81112876 22.72715804 25.18270153 24 23 C24 23.66 24 24.32 24 25 C24.66 24.67 25.32 24.34 26 24 C25.67 23.34 25.34 22.68 25 22 C25.66 22 26.32 22 27 22 C27.185625 20.576875 27.185625 20.576875 27.375 19.125 C28.13807183 15.30964086 28.62149944 14.06564288 32.625 13.875 Z M34 19 C35 21 35 21 35 21 Z " fill="#22B5CC" transform="translate(451,484)"/>
<path d="M0 0 C0.33 0 0.66 0 1 0 C1 31.68 1 63.36 1 96 C-33.32 96 -67.64 96 -103 96 C-103 95.67 -103 95.34 -103 95 C-101.82093582 94.99191315 -100.64187164 94.98382629 -99.42707825 94.97549438 C-88.31784981 94.89802427 -77.20874371 94.81028263 -66.09967518 94.71247292 C-60.38833357 94.66251789 -54.6770104 94.61618762 -48.96557617 94.578125 C-43.45418091 94.5412624 -37.9429401 94.49489949 -32.43167686 94.44193649 C-30.32856644 94.42339779 -28.22542292 94.40828789 -26.12226295 94.39665604 C-23.17745763 94.37978485 -20.23300562 94.35074724 -17.28833008 94.31884766 C-16.4179863 94.31668747 -15.54764252 94.31452728 -14.65092468 94.31230164 C-10.32445935 94.25239424 -6.94108251 94.01228769 -3 92 C-2.67 92.33 -2.34 92.66 -2 93 C-2.0407666 92.31373535 -2.0815332 91.6274707 -2.12353516 90.92041016 C-2.3015064 87.82245055 -2.4634482 84.72385734 -2.625 81.625 C-2.68945312 80.54476562 -2.75390625 79.46453125 -2.8203125 78.3515625 C-2.871875 77.3203125 -2.9234375 76.2890625 -2.9765625 75.2265625 C-3.05511475 73.79691162 -3.05511475 73.79691162 -3.13525391 72.33837891 C-3 70 -3 70 -1 68 C-0.66706256 65.04558199 -0.66706256 65.04558199 -0.68115234 61.53076172 C-0.67110672 60.86722687 -0.6610611 60.20369202 -0.65071106 59.52005005 C-0.61978012 57.32327148 -0.60281688 55.12661531 -0.5859375 52.9296875 C-0.56723377 51.40795837 -0.54766096 49.88623969 -0.5272522 48.36453247 C-0.47584076 44.35656895 -0.43626351 40.34857177 -0.39910889 36.3404541 C-0.35912552 32.25162366 -0.30800741 28.16293432 -0.2578125 24.07421875 C-0.16094661 16.04957541 -0.07657621 8.02486247 0 0 Z " fill="#1FBBD6" transform="translate(524,554)"/>
<path d="M0 0 C13.2 0 26.4 0 40 0 C40 20.46 40 40.92 40 62 C20.86 62 1.72 62 -18 62 C-13 44 -13 44 -11 42 C-11.45105781 45.6836388 -12.03345162 49.11609678 -13.0625 52.6875 C-14.18154831 56.06770239 -14.18154831 56.06770239 -14 60 C3.16 60 20.32 60 38 60 C38.33 40.53 38.66 21.06 39 1 C29.48701877 1.36698408 29.48701877 1.36698408 19.97460938 1.74829102 C13.51883326 1.98052879 7.37429924 2.10893092 1 1 C0.83564453 1.92619141 0.83564453 1.92619141 0.66796875 2.87109375 C-0.4377266 8.77712501 -1.95361435 14.35197559 -4 20 C-5 16 -5 16 0 0 Z " fill="#170404" transform="translate(469,433)"/>
<path d="M0 0 C0.33 0 0.66 0 1 0 C0.5554103 3.63081592 0.00182009 6.99400441 -1.0625 10.5 C-2.05905019 14.22045404 -2.36846725 17.16794059 -2 21 C-0.58333333 22.58333333 -0.58333333 22.58333333 1 24 C1.6875 27.1875 1.6875 27.1875 2 30 C1.34 30 0.68 30 0 30 C-0.66 31.32 -1.32 32.64 -2 34 C-2 33.34 -2 32.68 -2 32 C-3.485 32.495 -3.485 32.495 -5 33 C-5.33 32.34 -5.66 31.68 -6 31 C-8.32760583 36.0753812 -9.9111298 41.00920183 -11.1875 46.4375 C-11.45336914 47.53481445 -11.45336914 47.53481445 -11.72460938 48.65429688 C-12.15520891 50.43488415 -12.57839216 52.21726226 -13 54 C-13.66 54 -14.32 54 -15 54 C-14.39387908 47.61434877 -12.94401496 41.79595073 -11.09375 35.6640625 C-10.80898804 34.70349945 -10.52422607 33.7429364 -10.23083496 32.75326538 C-9.6319243 30.73714207 -9.0300279 28.72190352 -8.42529297 26.70751953 C-7.49714457 23.61548744 -6.57787085 20.52092439 -5.66015625 17.42578125 C-5.07603046 15.4633899 -4.49141252 13.50114496 -3.90625 11.5390625 C-3.63018921 10.61203522 -3.35412842 9.68500793 -3.06970215 8.72988892 C-2.8127356 7.87494843 -2.55576904 7.02000793 -2.29101562 6.13916016 C-2.06530884 5.38607574 -1.83960205 4.63299133 -1.60705566 3.85708618 C-1 2 -1 2 0 0 Z " fill="#24B4CB" transform="translate(415,558)"/>
<path d="M0 0 C0.66 0 1.32 0 2 0 C3.42773438 1.45117188 3.42773438 1.45117188 5.09375 3.46875 C8.99970486 8.06208822 13.20049322 12.27740747 17.5 16.5 C22.3384133 21.2518585 26.9960586 26.05835076 31.41894531 31.20068359 C33.53807106 33.61235079 35.81332844 35.83630826 38.125 38.0625 C48.83800628 48.7102825 48.83800628 48.7102825 49 56 C48.00390625 58.17578125 48.00390625 58.17578125 47 60 C47.020625 58.741875 47.04125 57.48375 47.0625 56.1875 C45.72515681 45.26868538 33.66860703 36.49175368 26.20507812 29.18945312 C22.17599164 25.2420624 18.37707732 21.19880941 14.70117188 16.92163086 C11.42594563 13.22196011 7.83494423 9.83337998 4.27929688 6.40625 C2.81718878 4.97301047 1.40382308 3.49037458 0 2 C0 1.34 0 0.68 0 0 Z " fill="#060708" transform="translate(293,541)"/>
<path d="M0 0 C0.66 0 1.32 0 2 0 C1.67 3.3 1.34 6.6 1 10 C19.97605791 11.23528355 38.9929761 11.54713978 58 12 C58 12.33 58 12.66 58 13 C38.86 13 19.72 13 0 13 C-0.33 11.35 -0.66 9.7 -1 8 C-1.66 7.67 -2.32 7.34 -3 7 C-2.34 7 -1.68 7 -1 7 C-0.67 4.69 -0.34 2.38 0 0 Z " fill="#29CEE6" transform="translate(451,484)"/>
<path d="M0 0 C11.22 0 22.44 0 34 0 C33.67 0.66 33.34 1.32 33 2 C23.1 2.495 23.1 2.495 13 3 C12.67 4.32 12.34 5.64 12 7 C11.67 7.99 11.34 8.98 11 10 C10.34 10 9.68 10 9 10 C8.67 7.36 8.34 4.72 8 2 C5.36 2 2.72 2 0 2 C0 1.34 0 0.68 0 0 Z " fill="#28C3D7" transform="translate(475,560)"/>
<path d="M0 0 C0.33 0 0.66 0 1 0 C1 25.08 1 50.16 1 76 C0.67 76 0.34 76 0 76 C-0.83301419 64.95605404 -1.10606278 54.00969689 -1 42.9375 C-0.97315333 40.07161833 -0.95335162 37.20580489 -0.9375 34.33984375 C-0.92009766 32.47380493 -0.92009766 32.47380493 -0.90234375 30.57006836 C-1.00066611 26.97564856 -1.47612232 23.55335179 -2 20 C-1.72448019 18.32280659 -1.38773806 16.65485591 -1 15 C-0.78118981 12.3931873 -0.58987147 9.79779811 -0.4375 7.1875 C-0.39431641 6.49462891 -0.35113281 5.80175781 -0.30664062 5.08789062 C-0.20138547 3.39211314 -0.10027137 1.69607948 0 0 Z " fill="#23B4CF" transform="translate(523,457)"/>
<path d="M0 0 C1.18414294 3.55242882 0.69535532 4.69830562 -0.4375 8.1875 C-0.72496094 9.08855469 -1.01242187 9.98960937 -1.30859375 10.91796875 C-1.53675781 11.60503906 -1.76492188 12.29210937 -2 13 C-3.32 13 -4.64 13 -6 13 C-6 12.34 -6 11.68 -6 11 C-8.64 10.67 -11.28 10.34 -14 10 C-14 9.34 -14 8.68 -14 8 C-7.375 4 -7.375 4 -4 4 C-3.67 3.01 -3.34 2.02 -3 1 C-2.01 1.33 -1.02 1.66 0 2 C0 1.34 0 0.68 0 0 Z " fill="#209DB5" transform="translate(456,467)"/>
<path d="M0 0 C0.99 1.32 1.98 2.64 3 4 C1.81540416 6.36919168 0.61683073 8.72212669 -0.625 11.0625 C-2.21197005 13.91228133 -2.21197005 13.91228133 -2 17 C-1.34 16.67 -0.68 16.34 0 16 C-0.33 17.65 -0.66 19.3 -1 21 C-1.66 21 -2.32 21 -3 21 C-2.67 22.32 -2.34 23.64 -2 25 C-2.928125 25.12375 -2.928125 25.12375 -3.875 25.25 C-6.18437567 25.81258459 -6.18437567 25.81258459 -7.25 28.0625 C-7.4975 28.701875 -7.745 29.34125 -8 30 C-7.3198766 23.85338477 -5.73417831 18.11397257 -4 12.1875 C-3.72671875 11.23423828 -3.4534375 10.28097656 -3.171875 9.29882812 C-1.14553571 2.29107143 -1.14553571 2.29107143 0 0 Z " fill="#24C0D9" transform="translate(439,477)"/>
<path d="M0 0 C10.89 0 21.78 0 33 0 C33 0.33 33 0.66 33 1 C22.44 1 11.88 1 1 1 C-0.23036156 6.03942428 -0.23036156 6.03942428 -1.45263672 11.08081055 C-2.38538539 14.8561991 -3.43459749 18.42495913 -5 22 C-5.66 20.68 -6.32 19.36 -7 18 C-7.99 18 -8.98 18 -10 18 C-9.505 16.515 -9.505 16.515 -9 15 C-8.01 15 -7.02 15 -6 15 C-5.34 13.02 -4.68 11.04 -4 9 C-3.34 9 -2.68 9 -2 9 C-1.855625 7.88625 -1.71125 6.7725 -1.5625 5.625 C-1 2 -1 2 0 0 Z " fill="#24C8DF" transform="translate(426,576)"/>
<path d="M0 0 C3.04581486 1.36113013 5.13839026 2.89330096 7.48339844 5.25634766 C8.14378113 5.91688141 8.80416382 6.57741516 9.48455811 7.25796509 C10.18574768 7.96947723 10.88693726 8.68098938 11.609375 9.4140625 C12.33618469 10.14370209 13.06299438 10.87334167 13.81182861 11.62509155 C16.12929198 13.9537388 18.4396995 16.28924826 20.75 18.625 C22.32115444 20.20618653 23.89276371 21.78692125 25.46484375 23.3671875 C29.31518653 27.2395669 33.15976117 31.11760171 37 35 C36.34 35.66 35.68 36.32 35 37 C34.35313232 36.28094482 33.70626465 35.56188965 33.03979492 34.82104492 C26.02877054 27.07452793 18.74655059 19.6514889 11.3125 12.3125 C9.15990476 10.1864527 7.01065291 8.05710274 4.86328125 5.92578125 C3.92782471 5.00192627 2.99236816 4.07807129 2.02856445 3.1262207 C0 1 0 1 0 0 Z " fill="#010202" transform="translate(252,536)"/>
<path d="M0 0 C0.33 0.66 0.66 1.32 1 2 C1.66 2 2.32 2 3 2 C3.33 1.34 3.66 0.68 4 0 C3.43033897 7.37846666 1.25890025 13.9997153 -1.0625 21 C-1.43955078 22.15628906 -1.81660156 23.31257812 -2.20507812 24.50390625 C-3.13029448 27.3381133 -4.06207711 30.16997782 -5 33 C-5.144375 32.38125 -5.28875 31.7625 -5.4375 31.125 C-5.93152225 28.96741678 -5.93152225 28.96741678 -7 27 C-7.66 27 -8.32 27 -9 27 C-9.33 26.01 -9.66 25.02 -10 24 C-9.01 23.67 -8.02 23.34 -7 23 C-7 23.66 -7 24.32 -7 25 C-6.01 25 -5.02 25 -4 25 C-1.61005524 16.65773999 -0.4053172 8.66540227 0 0 Z " fill="#25CDE4" transform="translate(416,599)"/>
<path d="M0 0 C0.66 0.33 1.32 0.66 2 1 C1.0479279 2.00596297 0.08812654 3.00461563 -0.875 4 C-1.40867187 4.556875 -1.94234375 5.11375 -2.4921875 5.6875 C-4 7 -4 7 -6 7 C-6.33 7.99 -6.66 8.98 -7 10 C-8.91772461 11.36621094 -8.91772461 11.36621094 -11.40234375 12.734375 C-12.29244141 13.22550781 -13.18253906 13.71664062 -14.09960938 14.22265625 C-15.03611328 14.72667969 -15.97261719 15.23070312 -16.9375 15.75 C-18.33645508 16.52923828 -18.33645508 16.52923828 -19.76367188 17.32421875 C-24.93784145 20.1451326 -24.93784145 20.1451326 -27 21 C-27.66 20.67 -28.32 20.34 -29 20 C-27.96875 19.360625 -26.9375 18.72125 -25.875 18.0625 C-24.24944804 17.04254583 -22.6245492 16.02155059 -21 15 C-20.45875488 14.66226563 -19.91750977 14.32453125 -19.35986328 13.9765625 C-12.53694154 9.71152746 -5.91980244 5.49695941 0 0 Z " fill="#08090A" transform="translate(636,522)"/>
<path d="M0 0 C4.01930438 1.33976813 7.02069758 3.33931015 10.3515625 5.87890625 C12.12060315 7.19132292 12.12060315 7.19132292 15 8 C16.35386936 9.65002828 17.68678142 11.3174387 19 13 C19.99 13.66 20.98 14.32 22 15 C22 15.66 22 16.32 22 17 C22.66 17 23.32 17 24 17 C25.2890625 18.53125 25.2890625 18.53125 26.625 20.5 C27.07101562 21.1496875 27.51703125 21.799375 27.9765625 22.46875 C28.31429687 22.9740625 28.65203125 23.479375 29 24 C28.67 24.66 28.34 25.32 28 26 C27.46632813 25.38253906 26.93265625 24.76507813 26.3828125 24.12890625 C18.9299864 15.65744128 11.22846402 8.08001219 1.6171875 2.09375 C1.08351563 1.7328125 0.54984375 1.371875 0 1 C0 0.67 0 0.34 0 0 Z " fill="#08090A" transform="translate(616,339)"/>
<path d="M0 0 C1.76496649 6.60068768 1.27731723 11.20198208 -1.9765625 17.1328125 C-3.19166055 19.34967077 -4.11315508 21.63508021 -5 24 C-6.14184472 20.6252898 -5.84408845 18.60566936 -4.78515625 15.234375 C-4.37426758 13.90019531 -4.37426758 13.90019531 -3.95507812 12.5390625 C-3.66052734 11.61867188 -3.36597656 10.69828125 -3.0625 9.75 C-2.77181641 8.81414062 -2.48113281 7.87828125 -2.18164062 6.9140625 C-1.46343503 4.6063855 -0.73596262 2.30206318 0 0 Z " fill="#25BCD3" transform="translate(446,452)"/>
<path d="M0 0 C1.31225809 3.93677426 0.3393954 5.7794262 -0.9375 9.6875 C-1.50791016 11.45673828 -1.50791016 11.45673828 -2.08984375 13.26171875 C-2.54037109 14.61716797 -2.54037109 14.61716797 -3 16 C-3.66 16 -4.32 16 -5 16 C-5.66 17.32 -6.32 18.64 -7 20 C-7.99 19.34 -8.98 18.68 -10 18 C-9.34 18 -8.68 18 -8 18 C-7.71125 17.4225 -7.4225 16.845 -7.125 16.25 C-6.4207224 14.84144479 -5.69472125 13.44331523 -4.9375 12.0625 C-3.87796466 9.73152226 -3.41973913 7.51843478 -3 5 C-2.34 5 -1.68 5 -1 5 C-0.67 3.35 -0.34 1.7 0 0 Z " fill="#23A6BE" transform="translate(435,545)"/>
<path d="M0 0 C-1.56126332 3.83219177 -4.02866925 6.17361222 -7 9 C-7.556875 9.598125 -8.11375 10.19625 -8.6875 10.8125 C-10 12 -10 12 -12 12 C-12 12.99 -12 13.98 -12 15 C-12.99 15 -13.98 15 -15 15 C-13.387672 10.96918 -10.53765404 8.24055863 -7.5 5.25 C-7.00113281 4.74339844 -6.50226563 4.23679687 -5.98828125 3.71484375 C-2.25341139 0 -2.25341139 0 0 0 Z " fill="#0F1011" transform="translate(284,504)"/>
<path d="M0 0 C3.96 0 7.92 0 12 0 C12 0.33 12 0.66 12 1 C8.37 1.33 4.74 1.66 1 2 C0.71125 3.60875 0.4225 5.2175 0.125 6.875 C-0.75 11.75 -0.75 11.75 -3 14 C-3.02712066 12.56260487 -3.04645067 11.12506137 -3.0625 9.6875 C-3.07410156 8.88699219 -3.08570313 8.08648437 -3.09765625 7.26171875 C-3 5 -3 5 -2 2 C-1.34 2 -0.68 2 0 2 C0 1.34 0 0.68 0 0 Z " fill="#25B7CF" transform="translate(468,430)"/>
<path d="M0 0 C0.33 1.32 0.66 2.64 1 4 C0.01 4.33 -0.98 4.66 -2 5 C-1.67 6.32 -1.34 7.64 -1 9 C-1.928125 9.12375 -1.928125 9.12375 -2.875 9.25 C-5.18437567 9.81258459 -5.18437567 9.81258459 -6.25 12.0625 C-6.4975 12.701875 -6.745 13.34125 -7 14 C-6.05528846 5.8125 -6.05528846 5.8125 -4 3 C-1.875 2.25 -1.875 2.25 0 2 C0 1.34 0 0.68 0 0 Z " fill="#23ADC4" transform="translate(438,493)"/>
<path d="M0 0 C1.54155198 5.24361241 0.97890694 10.04218613 -1.4375 14.875 C-3 17 -3 17 -5 19 C-3.9559635 12.31816637 -2.5957524 6.2534035 0 0 Z " fill="#26C1D8" transform="translate(421,538)"/>
<path d="M0 0 C0.98641817 3.08617221 0.98745472 4.97752191 0.07421875 8.07421875 C-0.25545898 9.19860352 -0.25545898 9.19860352 -0.59179688 10.34570312 C-0.82962891 11.11849609 -1.06746094 11.89128906 -1.3125 12.6875 C-1.53873047 13.47189453 -1.76496094 14.25628906 -1.99804688 15.06445312 C-2.59787707 17.06446331 -3.29230268 19.03556586 -4 21 C-4.66 21.33 -5.32 21.66 -6 22 C-4.97343476 14.13867147 -3.29230693 7.22389676 0 0 Z " fill="#190A0B" transform="translate(396,617)"/>
<path d="M0 0 C1.68550367 3.37100733 -0.31136964 6.72014632 -1.4375 10.125 C-1.68048828 10.87910156 -1.92347656 11.63320313 -2.17382812 12.41015625 C-2.77595819 14.27557879 -3.38713463 16.13807683 -4 18 C-4.66 18 -5.32 18 -6 18 C-3.10933941 5.33029613 -3.10933941 5.33029613 0 0 Z " fill="#0B0C0C" transform="translate(400,541)"/>
<path d="M0 0 C0.33 0 0.66 0 1 0 C0.65697965 5.98511371 0.17692157 10.75117306 -3 16 C-4.49828872 12.11764181 -3.43110582 9.56550712 -2.0625 5.75 C-1.68222656 4.67234375 -1.30195313 3.5946875 -0.91015625 2.484375 C-0.45962891 1.25460937 -0.45962891 1.25460937 0 0 Z " fill="#26C0D6" transform="translate(426,521)"/>
<path d="M0 0 C0.66 0 1.32 0 2 0 C1.67 4.29 1.34 8.58 1 13 C0.34 12.67 -0.32 12.34 -1 12 C-1 10.68 -1 9.36 -1 8 C-1.66 7.67 -2.32 7.34 -3 7 C-2.34 7 -1.68 7 -1 7 C-0.67 4.69 -0.34 2.38 0 0 Z " fill="#23B8D0" transform="translate(451,484)"/>
<path d="M0 0 C1.18771723 3.42943519 0.80226223 5.37784675 -0.4375 8.75 C-0.86869141 9.94882812 -0.86869141 9.94882812 -1.30859375 11.171875 C-1.65083984 12.07679688 -1.65083984 12.07679688 -2 13 C-2.33 13 -2.66 13 -3 13 C-3 10.03 -3 7.06 -3 4 C-2.34 4 -1.68 4 -1 4 C-0.67 2.68 -0.34 1.36 0 0 Z " fill="#23BBD5" transform="translate(462,452)"/>
<path d="M0 0 C5.08335725 0.15404113 7.35754718 3.02068432 10.64453125 6.50390625 C11.09183594 6.99761719 11.53914062 7.49132812 12 8 C11.34 8.66 10.68 9.32 10 10 C9.46375 9.236875 8.9275 8.47375 8.375 7.6875 C5.79794186 4.77135526 3.54185596 3.5294378 0 2 C0 1.34 0 0.68 0 0 Z " fill="#0B0C0D" transform="translate(573,398)"/>
<path d="M0 0 C0.66 0 1.32 0 2 0 C2 0.66 2 1.32 2 2 C3.32 2.33 4.64 2.66 6 3 C5.34 5.31 4.68 7.62 4 10 C3.855625 9.38125 3.71125 8.7625 3.5625 8.125 C3.06847775 5.96741678 3.06847775 5.96741678 2 4 C1.34 4 0.68 4 0 4 C-0.33 3.01 -0.66 2.02 -1 1 C-0.67 0.67 -0.34 0.34 0 0 Z " fill="#24B3CB" transform="translate(407,622)"/>
<path d="M0 0 C0.33 0.66 0.66 1.32 1 2 C1.66 2 2.32 2 3 2 C3.33 1.34 3.66 0.68 4 0 C3.51171875 6.0546875 3.51171875 6.0546875 3 8 C2.01 8.66 1.02 9.32 0 10 C0 6.7 0 3.4 0 0 Z " fill="#25B5CC" transform="translate(416,599)"/>
<path d="M0 0 C1.15957207 3.47871621 0.77456651 4.34219645 -0.4375 7.6875 C-0.86869141 8.89986328 -0.86869141 8.89986328 -1.30859375 10.13671875 C-1.53675781 10.75160156 -1.76492188 11.36648438 -2 12 C-2.33 12 -2.66 12 -3 12 C-3.33 10.02 -3.66 8.04 -4 6 C-3.01 5.67 -2.02 5.34 -1 5 C-0.67 3.35 -0.34 1.7 0 0 Z " fill="#24C1D8" transform="translate(435,545)"/>
<path d="M0 0 C0.99 1.32 1.98 2.64 3 4 C1.25 7.875 1.25 7.875 -1 9 C-2.0326802 6.21176345 -2.04509293 5.1322726 -1.0625 2.25 C-0.711875 1.5075 -0.36125 0.765 0 0 Z " fill="#23B2C9" transform="translate(439,477)"/>
<path d="M0 0 C0.66 0 1.32 0 2 0 C3.32421875 1.64453125 3.32421875 1.64453125 4.6875 3.8125 C5.14511719 4.52019531 5.60273437 5.22789062 6.07421875 5.95703125 C7 8 7 8 6 11 C4.99735282 9.35577799 3.99794896 7.70957779 3 6.0625 C2.443125 5.14597656 1.88625 4.22945312 1.3125 3.28515625 C0 1 0 1 0 0 Z " fill="#090A0A" transform="translate(662,653)"/>
<path d="M0 0 C0.99 0.33 1.98 0.66 3 1 C2.01 1.33 1.02 1.66 0 2 C-0.33 4.97 -0.66 7.94 -1 11 C-1.33 11 -1.66 11 -2 11 C-2.33 8.03 -2.66 5.06 -3 2 C-2.01 1.34 -1.02 0.68 0 0 Z " fill="#24A9C2" transform="translate(474,575)"/>
<path d="M0 0 C1.12894876 0.93274109 2.25300876 1.87140122 3.375 2.8125 C4.00148438 3.33457031 4.62796875 3.85664062 5.2734375 4.39453125 C7 6 7 6 9 9 C6 9 6 9 4.39453125 7.5390625 C3.61142578 6.59160156 3.61142578 6.59160156 2.8125 5.625 C2.28269531 4.99851562 1.75289063 4.37203125 1.20703125 3.7265625 C0 2 0 2 0 0 Z " fill="#0B0C0D" transform="translate(280,563)"/>
<path d="M0 0 C1.0516399 3.15491969 0.98032423 4.03355588 0.1875 7.125 C0.01605469 7.82882812 -0.15539062 8.53265625 -0.33203125 9.2578125 C-1 11 -1 11 -3 12 C-2.49202991 7.6822542 -1.80317221 3.96697886 0 0 Z " fill="#25C4DE" transform="translate(430,508)"/>
<path d="M0 0 C-0.33 2.31 -0.66 4.62 -1 7 C-1.33 7 -1.66 7 -2 7 C-2 5.02 -2 3.04 -2 1 C-4.31 1 -6.62 1 -9 1 C-9 0.67 -9 0.34 -9 0 C-3.375 -1.125 -3.375 -1.125 0 0 Z " fill="#23ABC6" transform="translate(511,511)"/>
<path d="M0 0 C0.99 0 1.98 0 3 0 C2.6875 2.375 2.6875 2.375 2 5 C1.01 5.66 0.02 6.32 -1 7 C-0.67 4.69 -0.34 2.38 0 0 Z " fill="#23B3C9" transform="translate(409,577)"/>
<path d="M0 0 C0.33 0 0.66 0 1 0 C1.36923077 7.50769231 1.36923077 7.50769231 -0.5 10 C-0.995 10.33 -1.49 10.66 -2 11 C-1.125 3.375 -1.125 3.375 0 0 Z " fill="#26CAE0" transform="translate(452,428)"/>
</svg>
