<?xml version="1.0" encoding="UTF-8"?>
<svg version="1.1" xmlns="http://www.w3.org/2000/svg" width="480" height="480">
<path d="M0 0 C158.4 0 316.8 0 480 0 C480 158.4 480 316.8 480 480 C321.6 480 163.2 480 0 480 C0 321.6 0 163.2 0 0 Z " fill="#F6DE1D" transform="translate(0,0)"/>
<path d="M0 0 C1.55654297 -0.00483398 1.55654297 -0.00483398 3.14453125 -0.00976562 C13.47585187 0.06099684 23.31932474 1.16737677 32.75 5.5625 C33.43400879 5.87405029 34.11801758 6.18560059 34.82275391 6.5065918 C39.90430684 8.8883801 44.35985721 11.48547725 48.5 15.3125 C49.31984375 16.0653125 50.1396875 16.818125 50.984375 17.59375 C56.20258371 22.59581989 61.22135608 27.79519563 64.5 34.3125 C64.5 35.3025 64.5 36.2925 64.5 37.3125 C63.08569336 38.50415039 63.08569336 38.50415039 61.08984375 39.66015625 C60.35386963 40.09618164 59.61789551 40.53220703 58.85961914 40.98144531 C58.06031982 41.44131836 57.26102051 41.90119141 56.4375 42.375 C49.49361588 46.46622781 42.74649237 50.71870573 36.18530273 55.40258789 C34.67351616 56.44875351 33.0910095 57.39127803 31.5 58.3125 C28.07975798 57.17241933 27.70086519 56.50197816 25.75 53.625 C21.00701277 47.10631311 15.6137006 41.93256233 7.5 40.3125 C-0.17269771 39.53369234 -7.18948717 39.44907876 -13.5 44.3125 C-17.42344916 47.99011901 -19.18770732 51.30220333 -19.73828125 56.609375 C-19.92043427 62.63001161 -19.26259305 67.45332234 -15.5 72.3125 C-6.59838018 80.42681536 4.62681237 85.03444326 15.625 89.625 C45.87226824 102.30139038 45.87226824 102.30139038 57.5 113.3125 C58.675625 114.37210938 58.675625 114.37210938 59.875 115.453125 C71.38651757 126.28303956 78.02798927 140.73809031 78.72265625 156.5234375 C78.96767508 165.5431933 78.40782368 173.69061233 75.5 182.3125 C75.25636719 183.13621094 75.01273438 183.95992187 74.76171875 184.80859375 C70.3679414 197.82333709 59.79588263 209.02225787 47.69824219 215.23828125 C23.12917657 226.93660929 -7.33503958 228.30404321 -33.10375977 219.40039062 C-51.64554388 212.59891057 -69.87057129 198.44636942 -78.5 180.3125 C-77.17691876 176.34325628 -75.60407848 175.94272739 -71.99609375 173.9140625 C-70.29549805 172.94726562 -70.29549805 172.94726562 -68.56054688 171.9609375 C-67.35307874 171.28607502 -66.14539485 170.61159843 -64.9375 169.9375 C-62.60115001 168.62019969 -60.26750297 167.2981896 -57.93359375 165.9765625 C-56.82483887 165.35168945 -55.71608398 164.72681641 -54.57373047 164.08300781 C-51.93120896 162.56088184 -49.35147114 160.98185878 -46.78515625 159.3359375 C-43.5 157.3125 -43.5 157.3125 -41.5 157.3125 C-40.20925452 158.95337874 -38.99238973 160.65268552 -37.8125 162.375 C-30.48564942 172.57512532 -22.52794421 179.4402577 -10.140625 182.98828125 C1.78057646 184.45197906 14.33508189 184.74090639 24.64453125 177.88671875 C28.25083057 175.04427916 30.11780308 172.76767425 31.5 168.3125 C32.1085181 162.72262446 32.60299684 156.52340526 30 151.375 C24.29096303 144.38142971 16.69570081 140.66494026 8.625 136.9375 C7.6155835 136.46199707 6.60616699 135.98649414 5.56616211 135.49658203 C0.16898549 132.96730772 -5.2592299 130.52194792 -10.7265625 128.14868164 C-25.46393341 121.74176587 -38.21100151 114.90324845 -49.5 103.3125 C-50.42039062 102.40564453 -50.42039062 102.40564453 -51.359375 101.48046875 C-63.02479273 89.12354429 -66.17616506 71.55951905 -65.74609375 55.203125 C-64.78569338 40.01965248 -58.19063676 27.88900185 -47.5 17.3125 C-46.72269531 16.48492187 -46.72269531 16.48492187 -45.9296875 15.640625 C-42.10241339 11.91354131 -37.52044107 9.55501211 -32.8125 7.125 C-32.17755615 6.79161621 -31.5426123 6.45823242 -30.88842773 6.11474609 C-20.96500547 1.20920062 -10.96775642 -0.17030678 0 0 Z " fill="#010100" transform="translate(364.5,217.6875)"/>
<path d="M0 0 C15.18 0 30.36 0 46 0 C46.06795057 20.53326843 46.12311701 41.06644458 46.15543652 61.59979725 C46.17084773 71.1356645 46.19182615 80.67145648 46.22631836 90.20727539 C46.25639796 98.52719942 46.27561664 106.84706887 46.28226548 115.16704577 C46.2861466 119.56469308 46.29514499 123.9621844 46.31719017 128.35978127 C46.59216253 185.557796 46.59216253 185.557796 29 204 C28.34515625 204.69480469 27.6903125 205.38960937 27.015625 206.10546875 C11.8500477 220.85592988 -8.92673696 222.52996343 -28.9296875 222.2734375 C-46.77847737 221.71410527 -63.15688831 214.41636273 -76 202 C-89 187.86472603 -89 187.86472603 -89 180 C-86.66430664 178.27001953 -86.66430664 178.27001953 -83.41015625 176.3828125 C-82.54323402 175.87426224 -82.54323402 175.87426224 -81.65879822 175.35543823 C-79.79927014 174.26810176 -77.93114476 173.19657767 -76.0625 172.125 C-74.83730835 171.41115469 -73.61269171 170.6963215 -72.38867188 169.98046875 C-65.97183396 166.23820493 -59.5141848 162.57045068 -53 159 C-52.36384766 159.94359375 -52.36384766 159.94359375 -51.71484375 160.90625 C-43.58374227 173.63227693 -43.58374227 173.63227693 -31 181 C-22.5369396 181.97067359 -14.36320538 181.63448809 -7 177 C0.58938466 168.84141149 -0.695104 156.52163464 -0.68115234 146.10717773 C-0.67184127 144.50980631 -0.66167086 142.9124397 -0.65071106 141.31507874 C-0.62352989 137.00170983 -0.60829709 132.68837337 -0.59528303 128.37494159 C-0.57960023 123.8585711 -0.55282654 119.34226635 -0.5272522 114.82594299 C-0.4805553 106.28393624 -0.44376732 97.74191699 -0.41057932 89.19984823 C-0.37229355 79.47064241 -0.32290038 69.74150277 -0.27259517 60.01235282 C-0.16941054 40.0082781 -0.08157255 20.00417533 0 0 Z " fill="#030300" transform="translate(216,220)"/>
</svg>
